<svg xmlns="http://www.w3.org/2000/svg" xmlns:xlink="http://www.w3.org/1999/xlink" xmlns:lucid="lucid" width="2122" height="2406.7"><g transform="translate(0 0)" lucid:page-tab-id="MIGQPMffEPpUT"><path d="M0 0h2122v2406.7H0z" fill="#fff"/><path d="M227 740h295v361H227zM845 352v96.53h185.33V352z" stroke="#494949" stroke-width="2" fill="#fff"/><use xlink:href="#a" transform="matrix(1,0,0,1,849.1142441977801,356.0260915564598) translate(30.574999999999996 49.1)"/><path d="M646.73 348.5c-49.67 0-89.73 17.86-89.73 39.75 0 21.9 40.24 39.67 89.9 39.75h.37c49.5-.08 89.73-17.86 89.55-39.75 0-21.98-40.24-39.75-89.9-39.75z" stroke="#494949" stroke-width="2" fill="#fff"/><use xlink:href="#b" transform="matrix(1,0,0,1,584.3716012084592,364.6585365853659) translate(-14.875 28.1)"/><path d="M762.33 170C730.6 170 705 184.96 705 203.3c0 18.34 25.7 33.23 57.44 33.3h.22c31.63-.07 57.34-14.96 57.22-33.3 0-18.4-25.7-33.3-57.44-33.3z" stroke="#494949" stroke-width="2" fill="#fff"/><use xlink:href="#c" transform="matrix(1,0,0,1,722.4874118831823,183.53658536585365) translate(16.549999999999997 24.1)"/><path d="M919.77 50C878.37 50 845 67.97 845 90s33.53 39.92 74.92 40h.31c41.24-.08 74.77-17.97 74.62-40 0-22.1-33.54-40-74.93-40z" stroke="#494949" stroke-width="2" fill="#fff"/><use xlink:href="#d" transform="matrix(1,0,0,1,867.809667673716,66.26016260162602) translate(22.549999999999997 28.6)"/><path d="M736.82 388.25h53.6v-.9H844" stroke="#494949" stroke-width="2" fill="none"/><path d="M736.82 389.25h-.03l.02-.74zm0-1l-.03-1h.02zM845 388.36h-1v-2h1z" fill="#494949"/><path d="M762.5 236.6v57.2h132.02V351" stroke="#494949" stroke-width="2" fill="none"/><path d="M762.25 236.6h.2-.95v-.04zm1.25-.04v.04h-.83zM895.52 352h-2v-1h2z" fill="#494949"/><path d="M920 130v221" stroke="#494949" stroke-width="2" fill="none"/><path d="M919.92 130H919v-.02zm1.08-.03v.03h-.77zM921 352h-2v-1h2z" fill="#494949"/><path d="M937.66 448.53v27.93h-223v27.93" stroke="#494949" stroke-width="2" fill="none"/><path fill="#494949"/><path d="M715.66 504.86l-2 1.67v-2.14h2z" fill="#494949"/><path d="M721.23 627.72v40l-.6 1.4-1.4.6H503.6l-1.42-.6-.6-1.4V271.6m215.65 356.12v38H505.6V271.6" stroke="#494949" stroke-width="2" fill="none"/><path d="M723.86 642h-9.27l4.63-14.28z" fill="#494949"/><path d="M725.24 643H713.2l5-15.33.54.46 1.3-1.1zm-9.27-2h6.5l-3.24-10.04zM504.6 271.6h-2v-1h2z" fill="#494949"/><path d="M670.76 20C626.6 20 591 36.62 591 57s35.77 36.92 79.92 37h.32c44-.08 79.76-16.62 79.6-37 0-20.46-35.77-37-79.92-37z" stroke="#494949" stroke-width="2" fill="#fff"/><use xlink:href="#e" transform="matrix(1,0,0,1,615.3303121852971,35.040650406504064) translate(25.549999999999997 26.6)"/><path d="M403 173v97.6h204.27V173z" stroke="#494949" stroke-width="2" fill="#fff"/><path d="M410.2 180.47v82.93h190.13v-82.93z" stroke="#494949" stroke-width="2" fill="#fff"/><path d="M456 212h94.9v21.6H456z" fill="none"/><use xlink:href="#f" transform="matrix(1,0,0,1,456.0000000000002,211.99999999999994) translate(2.6000000000000014 14.6)"/><path d="M717.5 503.33l-80.5 67.2L717.5 638l80.83-67.47z" stroke="#494949" stroke-width="2" fill="#fff"/><path d="M718.74 513.46L650.2 570.9l68.54 57.23L787 570.9z" stroke="#494949" stroke-width="2" fill="#fff"/><path d="M807 540.7h124.6v21.6H807z" fill="none"/><use xlink:href="#g" transform="matrix(1,0,0,1,807,540.7) translate(18.049999999999997 14.6)"/><path d="M259 1041.57H35l-1.4-.58-.6-1.43V327l.6-1.4 1.4-.6h40m184 712.57H37V329h38" stroke="#494949" stroke-width="2" fill="none"/><path d="M260 1040.57h-1v-2h1zM75 327l-14.27 4.64v-9.28z" fill="#494949"/><path d="M75.9 326.24l-.9.76.9.76L59.74 333v-12zm-14.17 4.02L71.76 327l-10.03-3.26z" fill="#494949"/><path d="M276 760v97.6h204.27V760z" stroke="#494949" stroke-width="2" fill="#fff"/><path d="M283.2 767.47v82.93h190.13v-82.93z" stroke="#494949" stroke-width="2" fill="#fff"/><path d="M334 799h94.9v21.6H334z" fill="none"/><use xlink:href="#h" transform="matrix(1,0,0,1,334.00000000000006,799) translate(9.099999999999994 14.6)"/><path d="M295 92v181.82H139.85" stroke="#494949" stroke-width="2" fill="none"/><path d="M294.93 92H294v-.03zm1.07-.03V92h-.8z" fill="#494949"/><path d="M67.33 130C35.6 130 10 145.72 10 165s25.7 34.93 57.44 35h.22c31.63-.07 57.34-15.72 57.22-35 0-19.35-25.7-35-57.44-35z" stroke="#494949" stroke-width="2" fill="#fff"/><use xlink:href="#i" transform="matrix(1,0,0,1,27.487411883182286,144.22764227642276) translate(-8.925000000000004 25.1)"/><path d="M94.77 12C53.37 12 20 27.72 20 47s33.53 34.93 74.92 35h.31c41.24-.07 74.77-15.72 74.62-35 0-19.35-33.54-35-74.93-35z" stroke="#494949" stroke-width="2" fill="#fff"/><use xlink:href="#j" transform="matrix(1,0,0,1,42.80966767371602,26.227642276422763) translate(14.049999999999997 25.1)"/><path d="M169.85 47h40v186.82h-70v40" stroke="#494949" stroke-width="2" fill="none"/><path d="M169.85 48h-.03l.02-.4V47l-.02-1h.03zM140.85 275.96l-2-1.67v-.48h2z" fill="#494949"/><path d="M102.4 647v155.1h179.8" stroke="#494949" stroke-width="2" fill="none"/><path d="M102.18 647h.17-.95v-.04zm1.22-.04v.04h-.82zM283.2 803.1h-1v-2h1z" fill="#494949"/><path d="M168.17 524v258.4H275" stroke="#494949" stroke-width="2" fill="none"/><path d="M167.93 524h.2-.95v-.04zm1.25-.04v.04h-.83zM276 783.4h-1v-2h1z" fill="#494949"/><path d="M365.12 451L305 502.9l60.12 52.1 60.36-52.1z" stroke="#494949" stroke-width="2" fill="#fff"/><path d="M366.04 458.82l-51.18 44.37 51.18 44.18 50.98-44.2z" stroke="#494949" stroke-width="2" fill="#fff"/><path d="M380 527h93.05v28H380z" fill="none"/><use xlink:href="#g" transform="matrix(1,0,0,1,380,527.0000000000001) translate(2.549999999999997 17.6)"/><path d="M362.47 759V653.43l.6-1.42V547.86m3.4 211.15V654.84l.6-1.4v-105.6" stroke="#494949" stroke-width="2" fill="none"/><path d="M365.47 760h-2v-1h2zM369.7 562.12h-9.27l4.63-14.27z" fill="#494949"/><path d="M365.93 547.28l5.15 15.84h-12.03l5.53-17zm-4.13 13.84h6.52l-3.26-10.03z" fill="#494949"/><path d="M361.75 452.58v-94.1h98.5V264.4" stroke="#494949" stroke-width="2" fill="none"/><path d="M362.75 453.04l-2 1.73v-2.2h2zM461.26 264.4h-2v-1h2z" fill="#494949"/><path d="M202 327h40.35v450.4c2.76 0 5 2.23 5 5 0 2.76-2.24 5-5 5v9.7c2.76 0 5 2.23 5 5 0 2.75-2.24 5-5 5v25.45h40.35" stroke="#494949" stroke-width="2" fill="none"/><path d="M202 328h-1.2l1.2-1-1.2-1h1.2zM283.2 833.55h-.5v-2h.5z" fill="#494949"/><path d="M1209 1490v94.9h185.07V1490z" stroke="#494949" stroke-width="2" fill="#fff"/><use xlink:href="#k" transform="matrix(1,0,0,1,1213.108561049445,1493.957648) translate(50.574999999999996 48.1)"/><path d="M1356 1865.56h-103l51.5-56z" stroke="#494949" stroke-width="2" fill="#fff"/><path d="M1346.5 1802.26h104.13v21.6H1346.5z" fill="none"/><use xlink:href="#l" transform="matrix(1,0,0,1,1346.5,1802.2640000000001) translate(24.575 14.6)"/><path d="M1303.54 1584.9v223.97h.5m-4.5-223.98v225.97l.58 1.42 1.42.57h2.5" stroke="#494949" stroke-width="2" fill="none"/><path fill="#494949"/><path d="M1304.04 1810.87l.58 2.95" stroke="#494949" stroke-width="2" fill="none"/><path d="M1090 2135.26v102.24h185.07v-102.24z" stroke="#494949" stroke-width="2" fill="#fff"/><use xlink:href="#m" transform="matrix(1,0,0,1,1094.108561049445,2139.5280000000002) translate(13.650000000000006 51.6)"/><path d="M1348.46 2135.26v102.24h185.08v-102.24z" stroke="#494949" stroke-width="2" fill="#fff"/><use xlink:href="#n" transform="matrix(1,0,0,1,1352.5725610494449,2139.5280000000002) translate(21.599999999999994 51.6)"/><path d="M1182.54 2135.26V2000.4h121.96v-134.84" stroke="#494949" stroke-width="2" fill="none"/><path fill="#494949"/><path fill="#494949"/><path d="M1441 2135.26V2000.4h-136.5v-134.84" stroke="#494949" stroke-width="2" fill="none"/><path fill="#494949"/><path fill="#494949"/><path d="M1639.75 1684.32V1527.2h-244.68" stroke="#494949" stroke-width="2" fill="none"/><path d="M1639.75 1684.32l-4.64-14.27h9.28z" fill="#494949"/><path d="M1640.58 1685l-.83-.68-.83.7-5.18-15.97h12.02zm-4.1-13.95l3.27 10.03 3.26-10.03zM1395.07 1528.2h-1v-2h1z" fill="#494949"/><path d="M1641.75 1790.32v409.5l-.6 1.42-1.4.6h-105.2m103.2-411.52v407.5h-103.2" stroke="#494949" stroke-width="2" fill="none"/><path d="M1639.75 1790.32h-1v-.83zm1 0h-1l1-.83zM1534.54 2200.83h-1v-2h1z" fill="#494949"/><path d="M1639.75 1684.32l63.5 53-63.5 53-63.5-53z" stroke="#494949" stroke-width="2" fill="#fff"/><path d="M1723 1711.26h234v40h-234z" fill="none"/><use xlink:href="#o" transform="matrix(1,0,0,1,1723,1711.2640000000001) translate(18.825000000000017 23.6)"/><use xlink:href="#p" transform="matrix(1,0,0,1,1723,1711.2640000000001) translate(34.32500000000002 23.6)"/><path d="M260 987v98.3h185.07V987z" stroke="#494949" stroke-width="2" fill="#fff"/><use xlink:href="#q" transform="matrix(1,0,0,1,264.10856104944503,991.1) translate(58.025 49.6)"/><path d="M810 1280.3H707l51.5-56z" stroke="#494949" stroke-width="2" fill="#fff"/><path d="M797 1210h104.13v21.6H797z" fill="none"/><use xlink:href="#l" transform="matrix(1,0,0,1,796.9999999999998,1210) translate(24.575 14.6)"/><path d="M410.8 1086.3v67h347.7l1.4.6.6 1.4v69m-353.7-138v69l.6 1.4 1.4.6h347.7v67" stroke="#494949" stroke-width="2" fill="none"/><path d="M409.8 1086.3h-2v-1h2zM759.5 1225.4l-1-1.1-1 1.1v-1.1h2z" fill="#494949"/><path d="M567 1375.3v102.23h185.07V1375.3z" stroke="#494949" stroke-width="2" fill="#fff"/><use xlink:href="#r" transform="matrix(1,0,0,1,571.1085610494448,1379.5639999999999) translate(60.599999999999994 51.6)"/><path d="M862 1375.3v102.23h186V1375.3z" stroke="#494949" stroke-width="2" fill="#fff"/><use xlink:href="#s" transform="matrix(1,0,0,1,866.1291624621592,1379.5639999999999) translate(63.05 51.6)"/><path d="M758.5 1280.3v47h-91.4v47" stroke="#494949" stroke-width="2" fill="none"/><path fill="#494949"/><path d="M668.1 1375.3h-2v-1h2z" fill="#494949"/><path d="M955 1375.3v-47.5H758.5v-47.5" stroke="#494949" stroke-width="2" fill="none"/><path fill="#494949"/><path fill="#494949"/><path d="M996 1127h311.9v362" stroke="#494949" stroke-width="2" fill="none"/><path d="M996 1128h-1.2l1.2-1-1.2-1h1.2zM1308.9 1490h-2v-1h2z" fill="#494949"/><path d="M869 1129H657.54l-1.42-.6-.58-1.4v-41H446.07M869 1125H659.54v-41l-.6-1.4-1.4-.6H446.07" stroke="#494949" stroke-width="2" fill="none"/><path d="M869 1127l-14.27 4.64v-9.28z" fill="#494949"/><path d="M869.9 1126.24l-.9.76.9.76-16.17 5.25v-12zm-14.17 4.02l10.03-3.26-10.03-3.26zM446.07 1085h-1v-2h1z" fill="#494949"/><path d="M596.77 1560c-41.4 0-74.77 16.84-74.77 37.5s33.53 37.42 74.92 37.5h.31c41.24-.08 74.77-16.84 74.62-37.5 0-20.73-33.54-37.5-74.93-37.5z" stroke="#494949" stroke-width="2" fill="#fff"/><use xlink:href="#t" transform="matrix(1,0,0,1,544.809667673716,1575.2439024390244) translate(28.049999999999997 27.1)"/><path d="M597 1560v-81.47" stroke="#494949" stroke-width="2" fill="none"/><path d="M596 1560.03v-.03h.73zm2 0l-1-.03h1zM598 1478.53h-2v-1h2z" fill="#494949"/><path d="M936.77 1587.8c-41.4 0-74.77 16.62-74.77 37s33.53 36.92 74.92 37h.31c41.24-.08 74.77-16.62 74.62-37 0-20.46-33.54-37-74.93-37z" stroke="#494949" stroke-width="2" fill="#fff"/><use xlink:href="#c" transform="matrix(1,0,0,1,884.8096676737158,1602.840650406504) translate(29.049999999999997 26.6)"/><path d="M937 1587.8v-54.63h-.63v-54.64" stroke="#494949" stroke-width="2" fill="none"/><path d="M936 1587.83v-.03h.73zm2 0l-1-.03h1zM937.37 1478.53h-2v-1h2z" fill="#494949"/><path d="M441.46 1818.7v100.27h185.08V1818.7z" stroke="#494949" stroke-width="2" fill="#fff"/><use xlink:href="#u" transform="matrix(1,0,0,1,445.572561049445,1822.881625345605) translate(43.574999999999996 50.6)"/><path d="M585 2092H482l51.5-56z" stroke="#494949" stroke-width="2" fill="#fff"/><path d="M572 2021.7h104.13v21.6H572z" fill="none"/><use xlink:href="#v" transform="matrix(1,0,0,1,572,2021.699625345605) translate(11.074999999999996 14.6)"/><path d="M536 1918.97v58.5l-.5 1.22v57.3m-3.5-117.03v57.3l-.5 1.2V2036" stroke="#494949" stroke-width="2" fill="none"/><path fill="#494949"/><path d="M534.5 2037.1l-1-1.1-1 1.1v-1.1h2z" fill="#494949"/><path d="M555 2250.7v110.1h185.07v-110.1z" stroke="#494949" stroke-width="2" fill="#fff"/><use xlink:href="#w" transform="matrix(1,0,0,1,559.108561049445,2255.291625345605) translate(44.05 55.1)"/><path d="M330 2249v110.1h184.93V2249z" stroke="#494949" stroke-width="2" fill="#fff"/><use xlink:href="#x" transform="matrix(1,0,0,1,334.10536427850656,2253.592) translate(56.125 55.1)"/><path d="M533.5 2092v77.96H414.94v77.96" stroke="#494949" stroke-width="2" fill="none"/><path fill="#494949"/><path d="M415.94 2249h-2v-1.08h2z" fill="#494949"/><path d="M672.4 2249.62v-78.8H533.5V2092" stroke="#494949" stroke-width="2" fill="none"/><path d="M673.4 2250.7h-2v-1.08h2z" fill="#494949"/><path fill="#494949"/><path d="M245.77 1831.7c-41.94 0-75.77 16.84-75.77 37.5s33.98 37.42 75.92 37.5h.31c41.8-.08 75.77-16.84 75.62-37.5 0-20.73-33.98-37.5-75.93-37.5z" stroke="#494949" stroke-width="2" fill="#fff"/><use xlink:href="#y" transform="matrix(1,0,0,1,193.11379657603223,1846.9435277846294) translate(-11.875 27.1)"/><path d="M321.57 1876.38h59.45v.73h59.44" stroke="#494949" stroke-width="2" fill="none"/><path d="M321.57 1877.38h-1.5l.36-.83.43-1.17h.7zM441.46 1878.1h-1v-2h1z" fill="#494949"/><path d="M741.07 2288.1h38V1736H353.25l-1.4-.6-.6-1.4v-40m389.82 598.1h40l1.42-.6.57-1.4V1734l-.58-1.4-1.43-.6H355.25v-38" stroke="#494949" stroke-width="2" fill="none"/><path d="M741.07 2291.1h-1v-2h1zM353.25 1694h-1v-.83zm1 0h-1l1-.83z" fill="#494949"/><path d="M100 2309.7H60l-1.4-.6-.6-1.4V1126.3l.6-1.4 1.4-.6h220.88v-38M100 2305.7H62V1128.3h220.88l1.42-.6.58-1.4v-40" stroke="#494949" stroke-width="2" fill="none"/><path d="M100 2307.7l-14.27 4.63v-9.27z" fill="#494949"/><path d="M100.9 2306.94l-.9.76.9.76-16.17 5.25v-12zm-14.17 4.02l10.03-3.26-10.03-3.26zM283.88 1086.3h-2v-1h2z" fill="#494949"/><path d="M351.25 1588v-250.5l.13-.3V1087m3.87 501v-250.2l.13-.3V1087" stroke="#494949" stroke-width="2" fill="none"/><path d="M354.25 1588.83l-1-.83-1 .83v-.83h2zM354.38 1087h-2v-1.7h2z" fill="#494949"/><path d="M1460 331.47v94.9h186v-94.9z" stroke="#494949" stroke-width="2" fill="#fff"/><use xlink:href="#z" transform="matrix(1,0,0,1,1464.1291624621595,335.429648) translate(43.55 48.1)"/><path d="M1639.8 998.87h-103l51.5-56z" stroke="#494949" stroke-width="2" fill="#fff"/><path d="M1630.3 935.57h104.13v21.6H1630.3z" fill="none"/><use xlink:href="#l" transform="matrix(1,0,0,1,1630.3047225378018,935.5725543531531) translate(24.575 14.6)"/><path d="M1380.12 1084.87v102.23h185.08v-102.23z" stroke="#494949" stroke-width="2" fill="#fff"/><use xlink:href="#A" transform="matrix(1,0,0,1,1384.231838511643,1089.136554353153) translate(57.55 51.6)"/><path d="M1581.8 1084.87v102.23h185.08v-102.23z" stroke="#494949" stroke-width="2" fill="#fff"/><use xlink:href="#B" transform="matrix(1,0,0,1,1585.9132835872467,1089.136554353153) translate(66.05 51.6)"/><path d="M1472.66 1084.87v-43h115.64v-43" stroke="#494949" stroke-width="2" fill="none"/><path fill="#494949"/><path fill="#494949"/><path d="M1674.34 1084.87v-43h-86.04v-43" stroke="#494949" stroke-width="2" fill="none"/><path fill="#494949"/><path fill="#494949"/><path d="M1219.77 176c-41.4 0-74.77 19.32-74.77 43s33.53 42.9 74.92 43h.31c41.24-.1 74.77-19.32 74.62-43 0-23.77-33.54-43-74.93-43z" stroke="#494949" stroke-width="2" fill="#fff"/><use xlink:href="#c" transform="matrix(1,0,0,1,1167.809667673716,193.47967479674796) translate(29.049999999999997 30.1)"/><path d="M1243.25 35c-45.53 0-82.25 20.9-82.25 46.5s36.9 46.4 82.42 46.5h.33c45.36-.1 82.25-20.9 82.08-46.5 0-25.7-36.88-46.5-82.4-46.5z" stroke="#494949" stroke-width="2" fill="#fff"/><use xlink:href="#C" transform="matrix(1,0,0,1,1186.0906344410876,53.90243902439025) translate(-7.900000000000006 32.6)"/><path d="M1031.33 402.5h117.26" stroke="#494949" stroke-width="2" fill="none"/><path d="M1031.33 403.5h-1v-2h1zM1148.6 402.5l1.18 1h-1.2v-2h1.2z" fill="#494949"/><path d="M1275.6 400.5h89.7v-1.45l.58-1.4 1.4-.6h91.7m-183.4 7.45h91.7l1.43-.6.6-1.4v-1.45h89.7" stroke="#494949" stroke-width="2" fill="none"/><path d="M1289.86 407.14l-14.27-4.64 14.26-4.64z" fill="#494949"/><path d="M1290.86 408.5l-16.17-5.24.9-.76-.9-.76 16.16-5.25zm-12.03-6l10.03 3.26v-6.52zM1460 400.05h-1v-2h1z" fill="#494949"/><path d="M1462.3 1270.87c-59.33 0-107.18 24.26-107.18 54 0 29.75 48.07 53.9 107.4 54H1462.95c59.1-.1 107.17-24.25 106.96-54 0-29.85-48.06-54-107.38-54z" stroke="#494949" stroke-width="2" fill="#fff"/><use xlink:href="#D" transform="matrix(1,0,0,1,1387.817134461191,1292.8237738653484) translate(17.549999999999997 37.1)"/><path d="M1462.62 1270.87v-82.77" stroke="#494949" stroke-width="2" fill="none"/><path d="M1463.62 1270.9l-1-.03h1zm-2 0v-.03h.6zM1463.62 1188.1h-2v-1h2z" fill="#494949"/><path d="M1923.6 445.7h-103l51.5-56z" stroke="#494949" stroke-width="2" fill="#fff"/><path d="M1914.1 382.4h104.12V404H1914.1z" fill="none"/><use xlink:href="#E" transform="matrix(1,0,0,1,1914.0946666666664,382.3972412250198) translate(13.549999999999997 14.6)"/><path d="M1651.93 577v102.23H1837V577z" stroke="#494949" stroke-width="2" fill="#fff"/><use xlink:href="#F" transform="matrix(1,0,0,1,1656.0365610494448,581.264) translate(41.574999999999996 51.6)"/><path d="M1896.93 577v102.23H2082V577z" stroke="#494949" stroke-width="2" fill="#fff"/><use xlink:href="#G" transform="matrix(1,0,0,1,1901.0365610494448,581.264) translate(67.55 51.6)"/><path d="M1744.46 577v-65.65h127.63V445.7" stroke="#494949" stroke-width="2" fill="none"/><path fill="#494949"/><path fill="#494949"/><path d="M1989.46 577v-65.65H1872.1V445.7" stroke="#494949" stroke-width="2" fill="none"/><path fill="#494949"/><path fill="#494949"/><path d="M1732.77 760c-59.33 0-107.18 24.26-107.18 54s48.06 53.9 107.4 54H1733.4c59.1-.1 107.17-24.26 106.96-54 0-29.85-48.07-54-107.4-54z" stroke="#494949" stroke-width="2" fill="#fff"/><use xlink:href="#H" transform="matrix(1,0,0,1,1658.2885236656593,781.9512195121952) translate(19.574999999999996 37.1)"/><path d="M1733.1 760v-39.88h1.33v-39.9" stroke="#494949" stroke-width="2" fill="none"/><path d="M1734.1 760.02l-1-.02h1zm-2 0V760h.6zM1735.43 680.23h-2v-1h2z" fill="#494949"/><path d="M1586.3 942.87v-515.5m4 515.5v-515.5" stroke="#494949" stroke-width="2" fill="none"/><path d="M1589.3 943.96l-1-1.1-1 1.1v-1.1h2zM1589.3 427.36h-2v-1h2z" fill="#494949"/><path d="M1872.1 389.7v-41.86H1647" stroke="#494949" stroke-width="2" fill="none"/><path d="M1873.1 390.78l-1-1.08-1 1.08v-1.08h2zM1647 348.84h-1v-2h1z" fill="#494949"/><path d="M2050.66 576V138H1805" stroke="#494949" stroke-width="2" fill="none"/><path d="M2051.66 577h-2v-1h2zM1819.27 142.64L1805 138l14.27-4.64z" fill="#494949"/><path d="M1820.27 144l-16.18-5.24.9-.76-.9-.76 16.17-5.25zm-12.03-6l10.03 3.26v-6.52z" fill="#494949"/><path d="M1678 138h-132.1v192.47" stroke="#494949" stroke-width="2" fill="none"/><path d="M1678 138l1.2 1h-1.2v-2h1.2zM1546.9 331.47h-2v-1h2z" fill="#494949"/><path d="M1369.34 869l63.5 53-63.5 53-63.5-53z" stroke="#494949" stroke-width="2" fill="#fff"/><path d="M1225 868h105v37h-105z" fill="none"/><use xlink:href="#I" transform="matrix(1,0,0,1,1225,868) translate(30.025 22.6)"/><path d="M1553 426.36v221.32h-183.66V869" stroke="#494949" stroke-width="2" fill="none"/><path fill="#494949"/><path d="M1369.34 869l-4.63-14.27h9.28z" fill="#494949"/><path d="M1370.17 869.7l-.83-.7-.83.7-5.17-15.97h12.02zm-4.1-13.97l3.27 10.03 3.26-10.03z" fill="#494949"/><path d="M1369.34 975v54.94H446.07" stroke="#494949" stroke-width="2" fill="none"/><path d="M1369.34 975h-1v-.83zm1 0h-1l1-.83zM460.34 1034.58l-14.27-4.64 14.27-4.63z" fill="#494949"/><path d="M461.34 1035.95l-16.27-5.28v-1.46l16.27-5.27zm-12.03-6l10.04 3.25v-6.52z" fill="#494949"/><path d="M1741.5 85l63.5 53-63.5 53-63.5-53z" stroke="#494949" stroke-width="2" fill="#fff"/><path d="M1695.5 200h105v37h-105z" fill="none"/><use xlink:href="#o" transform="matrix(1,0,0,1,1695.5,199.9999999999999) translate(16.25 22.6)"/><use xlink:href="#J" transform="matrix(1,0,0,1,1695.5,199.9999999999999) translate(31.75 22.6)"/><path d="M353.25 1588l63.5 53-63.5 53-63.5-53z" stroke="#494949" stroke-width="2" fill="#fff"/><path d="M173.25 1602h105v37h-105z" fill="none"/><use xlink:href="#K" transform="matrix(1,0,0,1,173.25,1602) translate(10.274999999999999 22.6)"/><use xlink:href="#L" transform="matrix(1,0,0,1,173.25,1602) translate(85.225 22.6)"/><path d="M932.5 1074l63.5 53-63.5 53-63.5-53z" stroke="#494949" stroke-width="2" fill="#fff"/><path d="M789 1060h105.5v40H789z" fill="none"/><use xlink:href="#K" transform="matrix(1,0,0,1,789,1060) translate(10.274999999999999 24.1)"/><use xlink:href="#L" transform="matrix(1,0,0,1,789,1060) translate(85.225 24.1)"/><path d="M163.5 2254.7l63.5 53-63.5 53-63.5-53z" stroke="#494949" stroke-width="2" fill="#fff"/><path d="M117.5 2369.7h105v37h-105z" fill="none"/><use xlink:href="#M" transform="matrix(1,0,0,1,117.49999999999999,2369.699625345605) translate(30.275 22.6)"/><use xlink:href="#L" transform="matrix(1,0,0,1,117.49999999999999,2369.699625345605) translate(65.225 22.6)"/><path d="M164.92 2120c-27.63 0-49.92 15.05-49.92 33.5s22.4 33.43 50.02 33.5h.2c27.54-.07 49.92-15.05 49.82-33.5 0-18.52-22.4-33.5-50.02-33.5z" stroke="#494949" stroke-width="2" fill="#fff"/><use xlink:href="#N" transform="matrix(1,0,0,1,130.22834239677746,2133.6178861788617) translate(16.525 24.6)"/><path d="M165.07 2187v33.85h-1.57v33.85" stroke="#494949" stroke-width="2" fill="none"/><path d="M165.02 2187h-.95v-.03zm1.05-.04v.04h-.85zM164.5 2255.53l-1-.83-1 .83v-.83h2z" fill="#494949"/><path d="M1212.1 349l63.5 53.5-63.5 53.5-63.5-53.5z" stroke="#494949" stroke-width="2" fill="#fff"/><path d="M1137.16 462H1297v37h-159.84z" fill="none"/><use xlink:href="#O" transform="matrix(1,0,0,1,1137.1592774621981,461.99999999999994) translate(19.824999999999996 22.6)"/><use xlink:href="#L" transform="matrix(1,0,0,1,1137.1592774621981,461.99999999999994) translate(129.675 22.6)"/><path d="M1326.73 83.9h174.9v246.57" stroke="#494949" stroke-width="2" fill="none"/><path d="M1326.73 84.9h-1.1l.05-.4.13-1.6h.93zM1502.64 331.47h-2v-1h2z" fill="#494949"/><path d="M671.92 94.98v38.5H551.5V172" stroke="#494949" stroke-width="2" fill="none"/><path d="M672.92 94.98h-2V94h.32l1.68-.06zM552.5 173h-2v-1h2z" fill="#494949"/><path d="M486.5 100.95V172" stroke="#494949" stroke-width="2" fill="none"/><path d="M486.07 99.94l1.43.02v1h-2V99.9zM487.5 173h-2v-1h2z" fill="#494949"/><path d="M490.24 12C441.94 12 403 31.76 403 56s39.12 43.9 87.4 44h.36c48.12-.1 87.24-19.76 87.06-44 0-24.33-39.12-44-87.4-44z" stroke="#494949" stroke-width="2" fill="#fff"/><use xlink:href="#P" transform="matrix(1,0,0,1,429.61127895266867,29.88617886178862) translate(-10.825000000000003 31.1)"/><path d="M435.56 54.8H553.3v21.6H435.56z" fill="none"/><use xlink:href="#Q" transform="matrix(1,0,0,1,435.5581395348837,54.814814814814795) translate(-18.349999999999994 14.6)"/><path d="M329 2309.67h-50.93l-.07.03h-51m102-4.03h-51l-.07.03H227" stroke="#494949" stroke-width="2" fill="none"/><path d="M330 2308.67h-1v-2h1zM227 2308.7h-1.2l1.2-1-1.2-1h1.2z" fill="#494949"/><path d="M294.8 12C256.15 12 225 29.97 225 52s31.3 39.92 69.93 40h.28c38.5-.08 69.8-17.97 69.66-40 0-22.1-31.3-40-69.93-40z" stroke="#494949" stroke-width="2" fill="#fff"/><use xlink:href="#R" transform="matrix(1,0,0,1,246.2890231621349,28.260162601626018) translate(2.049999999999997 28.6)"/><path d="M142.78 834C103.05 834 71 849.95 71 869.5s32.2 35.43 71.93 35.5H143.22c39.6-.07 71.78-15.95 71.63-35.5 0-19.63-32.2-35.5-71.92-35.5z" stroke="#494949" stroke-width="2" fill="#fff"/><use xlink:href="#S" transform="matrix(1,0,0,1,92.89728096676737,848.430894308943) translate(32.525 25.6)"/><path d="M215.02 875.15h117.85V986" stroke="#494949" stroke-width="2" fill="none"/><path d="M215.02 876.15h-1.4l.34-.93.3-1.07h.76zM333.87 987h-2v-1h2z" fill="#494949"/><path d="M131.95 925C92.12 925 60 939.37 60 957c0 17.63 32.27 31.93 72.1 32h.28c39.68-.07 71.95-14.37 71.8-32 0-17.7-32.26-32-72.1-32z" stroke="#494949" stroke-width="2" fill="#fff"/><use xlink:href="#T" transform="matrix(1,0,0,1,81.94715810674722,938.0081300813008) translate(3.549999999999997 23.6)"/><path d="M204.5 952.43h102.76V986" stroke="#494949" stroke-width="2" fill="none"/><path d="M204.5 953.43h-.77l-.12-.5-.33-1.05-.18-.45h1.4zM308.26 987h-2v-1h2z" fill="#494949"/><path d="M1440.33 1626.26c-31.74 0-57.33 15.95-57.33 35.5 0 19.56 25.7 35.43 57.44 35.5h.22c31.63-.07 57.34-15.94 57.22-35.5 0-19.62-25.7-35.5-57.44-35.5z" stroke="#494949" stroke-width="2" fill="#fff"/><use xlink:href="#c" transform="matrix(1,0,0,1,1400.4874118831822,1640.6948943089433) translate(16.549999999999997 25.6)"/><path d="M1438.3 1625.54v-76.7h-43.23" stroke="#494949" stroke-width="2" fill="none"/><path d="M1439.3 1626.3l-2 .1v-.86h2zM1395.07 1549.84h-1v-2h1z" fill="#494949"/><path d="M856.77 655c-41.4 0-74.77 16.84-74.77 37.5s33.53 37.42 74.92 37.5h.31c41.24-.08 74.77-16.84 74.62-37.5 0-20.73-33.54-37.5-74.93-37.5z" stroke="#494949" stroke-width="2" fill="#fff"/><use xlink:href="#i" transform="matrix(1,0,0,1,804.809667673716,670.2439024390244) translate(3.5749999999999957 27.1)"/><path d="M1308.5 555l63.5 53-63.5 53-63.5-53z" stroke="#494949" stroke-width="2" fill="#fff"/><path d="M1256.5 521h105v38h-105z" fill="none"/><use xlink:href="#o" transform="matrix(1,0,0,1,1256.5,521) translate(22.275 22.6)"/><use xlink:href="#U" transform="matrix(1,0,0,1,1256.5,521) translate(37.775 22.6)"/><path d="M1128.27 853.33h56.37V608l.58-1.4 1.42-.6H1245m-116.73 251.33h58.37l1.4-.6.6-1.4V610H1245" stroke="#494949" stroke-width="2" fill="none"/><path d="M1128.27 856.33h-1v-2h1zM1245 608l-14.27 4.64v-9.28z" fill="#494949"/><path d="M1245.9 607.24l-.9.76.9.76-16.17 5.25v-12zm-14.17 4.02l10.03-3.26-10.03-3.26z" fill="#494949"/><path d="M1372 608h43.5V419.63h43.5" stroke="#494949" stroke-width="2" fill="none"/><path d="M1372 609h-1.2l1.2-1-1.2-1h1.2zM1460 420.63h-1v-2h1z" fill="#494949"/><path d="M923 807.4V905h204.27v-97.6z" stroke="#494949" stroke-width="2" fill="#fff"/><path d="M930.2 814.87v82.93h190.13v-82.93z" stroke="#494949" stroke-width="2" fill="#fff"/><path d="M976 846.4h94.9V868H976z" fill="none"/><use xlink:href="#V" transform="matrix(1,0,0,1,976,846.4) translate(5.049999999999997 14.6)"/><path d="M757.84 806.8l-80.5 67.2 80.5 67.47L838.66 874z" stroke="#494949" stroke-width="2" fill="#fff"/><path d="M759.07 816.92l-68.53 57.46 68.53 57.22 68.27-57.22z" stroke="#494949" stroke-width="2" fill="#fff"/><path d="M687.13 772.53h124.6v21.6h-124.6z" fill="none"/><use xlink:href="#W" transform="matrix(1,0,0,1,687.133607421875,772.5319999999999) translate(12.274999999999999 14.6)"/><use xlink:href="#X" transform="matrix(1,0,0,1,687.133607421875,772.5319999999999) translate(17.275 14.6)"/><use xlink:href="#Y" transform="matrix(1,0,0,1,687.133607421875,772.5319999999999) translate(32.775 14.6)"/><path d="M1061.74 806.4v-88.8h-53v-88.78" stroke="#494949" stroke-width="2" fill="none"/><path d="M1062.74 807.4h-2v-1h2zM1009.74 627.9v.92h-2v-1.07z" fill="#494949"/><path d="M826.4 873.97v-40l.6-1.4 1.4-.6H882l1.4.6.6 1.4v45.56h38m-91.6-5.56v-38H880v45.56l.6 1.4 1.4.6h40" stroke="#494949" stroke-width="2" fill="none"/><path d="M828.4 873.97l-4.63-14.27h9.27z" fill="#494949"/><path d="M828.4 877.2l-6-18.5h12.02zm-3.25-16.5l3.26 10.03 3.27-10.03zM923 882.53h-1v-2h1z" fill="#494949"/><path d="M138.5 274l63.5 53-63.5 53L75 327z" stroke="#494949" stroke-width="2" fill="#fff"/><path d="M90 390h105v38H90z" fill="none"/><use xlink:href="#Z" transform="matrix(1,0,0,1,89.99999999999999,390) translate(5.574999999999996 22.6)"/><path d="M67.5 200v67.38h72.35" stroke="#494949" stroke-width="2" fill="none"/><path d="M67.27 200h.17-.94v-.04zm1.23-.04v.04h-.83z" fill="#494949"/><path d="M102.23 577c-31.73 0-57.33 15.72-57.33 35s25.7 34.93 57.45 35h.23c31.6-.07 57.32-15.72 57.2-35 0-19.35-25.7-35-57.43-35z" stroke="#494949" stroke-width="2" fill="#fff"/><use xlink:href="#aa" transform="matrix(1,0,0,1,62.39075747877325,591.2276422764228) translate(18.05 25.1)"/><path d="M30.35 612.9H175v21.6H30.35z" fill="none"/><use xlink:href="#ab" transform="matrix(1,0,0,1,30.349999999999966,612.9000000000001) translate(45.724999999999994 14.6)"/><path d="M168 457.4c-31.73 0-57.33 14.96-57.33 33.3 0 18.34 25.7 33.23 57.45 33.3h.23c31.62-.07 57.32-14.96 57.2-33.3 0-18.4-25.7-33.3-57.43-33.3z" stroke="#494949" stroke-width="2" fill="#fff"/><use xlink:href="#ac" transform="matrix(1,0,0,1,128.16241188318222,470.93658536585366) translate(23.525 24.1)"/><path d="M97.67 491.7h144.66v21.6H97.67z" fill="none"/><use xlink:href="#ab" transform="matrix(1,0,0,1,97.67499999999998,491.7000000000001) translate(45.724999999999994 14.6)"/><path d="M1015.04 554c-41.4 0-74.77 16.62-74.77 37s33.53 36.92 74.92 37H1015.48c41.23-.08 74.77-16.62 74.62-37 0-20.46-33.54-37-74.93-37z" stroke="#494949" stroke-width="2" fill="#fff"/><use xlink:href="#ad" transform="matrix(1,0,0,1,963.0768825174661,569.040650406504) translate(21 26.6)"/><path d="M945.62 589h144.65v21.6H945.62z" fill="none"/><use xlink:href="#ae" transform="matrix(1,0,0,1,945.6172148437497,589) translate(36.79999999999999 14.6)"/><path d="M1294.85 219h171.08v111.47" stroke="#494949" stroke-width="2" fill="none"/><path d="M1294.85 220h-.02v-.15l.02-.85-.03-1h.03zM1466.93 331.47h-2v-1h2z" fill="#494949"/><path d="M857 730v38.2h85.25v38.2" stroke="#494949" stroke-width="2" fill="none"/><path d="M856.92 730H856v-.02zm1.08-.03v.03h-.77zM943.25 807.4h-2v-1h2z" fill="#494949"/><path d="M688.98 874.38H523.14" stroke="#494949" stroke-width="2" fill="none"/><path d="M690.54 874.38l1.2 1h-2.76v-2h2.75zM523.14 875.38H522v-2h1.14z" fill="#494949"/><defs><path fill="#494949" d="M185-189c-5-48-123-54-124 2 14 75 158 14 163 119 3 78-121 87-175 55-17-10-28-26-33-46l33-7c5 56 141 63 141-1 0-78-155-14-162-118-5-82 145-84 179-34 5 7 8 16 11 25" id="af"/><path fill="#494949" d="M84 4C-5 8 30-112 23-190h32v120c0 31 7 50 39 49 72-2 45-101 50-169h31l1 190h-30c-1-10 1-25-2-33-11 22-28 36-60 37" id="ag"/><path fill="#494949" d="M115-194c55 1 70 41 70 98S169 2 115 4C84 4 66-9 55-30l1 105H24l-1-265h31l2 30c10-21 28-34 59-34zm-8 174c40 0 45-34 45-75s-6-73-45-74c-42 0-51 32-51 76 0 43 10 73 51 73" id="ah"/><path fill="#494949" d="M100-194c63 0 86 42 84 106H49c0 40 14 67 53 68 26 1 43-12 49-29l28 8c-11 28-37 45-77 45C44 4 14-33 15-96c1-61 26-98 85-98zm52 81c6-60-76-77-97-28-3 7-6 17-6 28h103" id="ai"/><path fill="#494949" d="M114-163C36-179 61-72 57 0H25l-1-190h30c1 12-1 29 2 39 6-27 23-49 58-41v29" id="aj"/><path fill="#494949" d="M210-169c-67 3-38 105-44 169h-31v-121c0-29-5-50-35-48C34-165 62-65 56 0H25l-1-190h30c1 10-1 24 2 32 10-44 99-50 107 0 11-21 27-35 58-36 85-2 47 119 55 194h-31v-121c0-29-5-49-35-48" id="ak"/><path fill="#494949" d="M96-169c-40 0-48 33-48 73s9 75 48 75c24 0 41-14 43-38l32 2c-6 37-31 61-74 61-59 0-76-41-82-99-10-93 101-131 147-64 4 7 5 14 7 22l-32 3c-4-21-16-35-41-35" id="al"/><path fill="#494949" d="M141-36C126-15 110 5 73 4 37 3 15-17 15-53c-1-64 63-63 125-63 3-35-9-54-41-54-24 1-41 7-42 31l-33-3c5-37 33-52 76-52 45 0 72 20 72 64v82c-1 20 7 32 28 27v20c-31 9-61-2-59-35zM48-53c0 20 12 33 32 33 41-3 63-29 60-74-43 2-92-5-92 41" id="am"/><path fill="#494949" d="M85-194c31 0 48 13 60 33l-1-100h32l1 261h-30c-2-10 0-23-3-31C134-8 116 4 85 4 32 4 16-35 15-94c0-66 23-100 70-100zm9 24c-40 0-46 34-46 75 0 40 6 74 45 74 42 0 51-32 51-76 0-42-9-74-50-73" id="an"/><path fill="#494949" d="M100-194c62-1 85 37 85 99 1 63-27 99-86 99S16-35 15-95c0-66 28-99 85-99zM99-20c44 1 53-31 53-75 0-43-8-75-51-75s-53 32-53 75 10 74 51 75" id="ao"/><g id="a"><use transform="matrix(0.05,0,0,0.05,0,0)" xlink:href="#af"/><use transform="matrix(0.05,0,0,0.05,12,0)" xlink:href="#ag"/><use transform="matrix(0.05,0,0,0.05,22,0)" xlink:href="#ah"/><use transform="matrix(0.05,0,0,0.05,32,0)" xlink:href="#ai"/><use transform="matrix(0.05,0,0,0.05,42,0)" xlink:href="#aj"/><use transform="matrix(0.05,0,0,0.05,47.95,0)" xlink:href="#ak"/><use transform="matrix(0.05,0,0,0.05,62.900000000000006,0)" xlink:href="#ai"/><use transform="matrix(0.05,0,0,0.05,72.9,0)" xlink:href="#aj"/><use transform="matrix(0.05,0,0,0.05,78.85000000000001,0)" xlink:href="#al"/><use transform="matrix(0.05,0,0,0.05,87.85000000000001,0)" xlink:href="#am"/><use transform="matrix(0.05,0,0,0.05,97.85000000000001,0)" xlink:href="#an"/><use transform="matrix(0.05,0,0,0.05,107.85000000000001,0)" xlink:href="#ao"/></g><path fill="#494949" d="M190 0L58-211 59 0H30v-248h39L202-35l-2-213h31V0h-41" id="ap"/><path fill="#494949" d="M33 0v-248h34V0H33" id="aq"/><path fill="#494949" d="M63-220v92h138v28H63V0H30v-248h175v28H63" id="ar"/><path fill="#494949" d="M-5 72V49h209v23H-5" id="as"/><g id="b"><use transform="matrix(0.05,0,0,0.05,0,0)" xlink:href="#ap"/><use transform="matrix(0.05,0,0,0.05,12.950000000000001,0)" xlink:href="#aq"/><use transform="matrix(0.05,0,0,0.05,17.950000000000003,0)" xlink:href="#ar"/><use transform="matrix(0.05,0,0,0.05,28.900000000000006,0)" xlink:href="#as"/><use transform="matrix(0.05,0,0,0.05,38.900000000000006,0)" xlink:href="#af"/><use transform="matrix(0.05,0,0,0.05,50.900000000000006,0)" xlink:href="#ag"/><use transform="matrix(0.05,0,0,0.05,60.900000000000006,0)" xlink:href="#ah"/><use transform="matrix(0.05,0,0,0.05,70.9,0)" xlink:href="#ai"/><use transform="matrix(0.05,0,0,0.05,80.9,0)" xlink:href="#aj"/><use transform="matrix(0.05,0,0,0.05,86.85000000000001,0)" xlink:href="#ak"/><use transform="matrix(0.05,0,0,0.05,101.80000000000001,0)" xlink:href="#ai"/><use transform="matrix(0.05,0,0,0.05,111.80000000000001,0)" xlink:href="#aj"/><use transform="matrix(0.05,0,0,0.05,117.75,0)" xlink:href="#al"/><use transform="matrix(0.05,0,0,0.05,126.75,0)" xlink:href="#am"/><use transform="matrix(0.05,0,0,0.05,136.75,0)" xlink:href="#an"/><use transform="matrix(0.05,0,0,0.05,146.75,0)" xlink:href="#ao"/></g><g id="c"><use transform="matrix(0.05,0,0,0.05,0,0)" xlink:href="#ap"/><use transform="matrix(0.05,0,0,0.05,12.950000000000001,0)" xlink:href="#ao"/><use transform="matrix(0.05,0,0,0.05,22.950000000000003,0)" xlink:href="#ak"/><use transform="matrix(0.05,0,0,0.05,37.900000000000006,0)" xlink:href="#ai"/></g><path fill="#494949" d="M240 0l2-218c-23 76-54 145-80 218h-23L58-218 59 0H30v-248h44l77 211c21-75 51-140 76-211h43V0h-30" id="at"/><g id="d"><use transform="matrix(0.05,0,0,0.05,0,0)" xlink:href="#at"/><use transform="matrix(0.05,0,0,0.05,14.950000000000001,0)" xlink:href="#ao"/><use transform="matrix(0.05,0,0,0.05,24.950000000000003,0)" xlink:href="#aj"/><use transform="matrix(0.05,0,0,0.05,30.900000000000002,0)" xlink:href="#am"/><use transform="matrix(0.05,0,0,0.05,40.900000000000006,0)" xlink:href="#an"/><use transform="matrix(0.05,0,0,0.05,50.900000000000006,0)" xlink:href="#am"/></g><path fill="#494949" d="M30 0v-248h33v221h125V0H30" id="au"/><path fill="#494949" d="M177-190C167-65 218 103 67 71c-23-6-38-20-44-43l32-5c15 47 100 32 89-28v-30C133-14 115 1 83 1 29 1 15-40 15-95c0-56 16-97 71-98 29-1 48 16 59 35 1-10 0-23 2-32h30zM94-22c36 0 50-32 50-73 0-42-14-75-50-75-39 0-46 34-46 75s6 73 46 73" id="av"/><g id="e"><use transform="matrix(0.05,0,0,0.05,0,0)" xlink:href="#au"/><use transform="matrix(0.05,0,0,0.05,10,0)" xlink:href="#am"/><use transform="matrix(0.05,0,0,0.05,20,0)" xlink:href="#aj"/><use transform="matrix(0.05,0,0,0.05,25.950000000000003,0)" xlink:href="#av"/><use transform="matrix(0.05,0,0,0.05,35.95,0)" xlink:href="#ag"/><use transform="matrix(0.05,0,0,0.05,45.95,0)" xlink:href="#aj"/><use transform="matrix(0.05,0,0,0.05,51.900000000000006,0)" xlink:href="#am"/></g><path fill="#494949" d="M212-179c-10-28-35-45-73-45-59 0-87 40-87 99 0 60 29 101 89 101 43 0 62-24 78-52l27 14C228-24 195 4 139 4 59 4 22-46 18-125c-6-104 99-153 187-111 19 9 31 26 39 46" id="aw"/><path fill="#494949" d="M135-143c-3-34-86-38-87 0 15 53 115 12 119 90S17 21 10-45l28-5c4 36 97 45 98 0-10-56-113-15-118-90-4-57 82-63 122-42 12 7 21 19 24 35" id="ax"/><g id="f"><use transform="matrix(0.05,0,0,0.05,0,0)" xlink:href="#aw"/><use transform="matrix(0.05,0,0,0.05,12.950000000000001,0)" xlink:href="#ao"/><use transform="matrix(0.05,0,0,0.05,22.950000000000003,0)" xlink:href="#aj"/><use transform="matrix(0.05,0,0,0.05,28.900000000000002,0)" xlink:href="#aj"/><use transform="matrix(0.05,0,0,0.05,34.85,0)" xlink:href="#ai"/><use transform="matrix(0.05,0,0,0.05,44.85,0)" xlink:href="#an"/><use transform="matrix(0.05,0,0,0.05,54.85,0)" xlink:href="#ao"/><use transform="matrix(0.05,0,0,0.05,64.85,0)" xlink:href="#aj"/><use transform="matrix(0.05,0,0,0.05,70.8,0)" xlink:href="#ai"/><use transform="matrix(0.05,0,0,0.05,80.8,0)" xlink:href="#ax"/></g><path fill="#494949" d="M117-194c89-4 53 116 60 194h-32v-121c0-31-8-49-39-48C34-167 62-67 57 0H25l-1-190h30c1 10-1 24 2 32 11-22 29-35 61-36" id="ay"/><path fill="#494949" d="M24-231v-30h32v30H24zM24 0v-190h32V0H24" id="az"/><path fill="#494949" d="M9 0v-24l116-142H16v-24h144v24L44-24h123V0H9" id="aA"/><g id="g"><use transform="matrix(0.05,0,0,0.05,0,0)" xlink:href="#ao"/><use transform="matrix(0.05,0,0,0.05,10,0)" xlink:href="#aj"/><use transform="matrix(0.05,0,0,0.05,15.949999999999998,0)" xlink:href="#av"/><use transform="matrix(0.05,0,0,0.05,25.950000000000003,0)" xlink:href="#am"/><use transform="matrix(0.05,0,0,0.05,35.95,0)" xlink:href="#ay"/><use transform="matrix(0.05,0,0,0.05,45.95,0)" xlink:href="#az"/><use transform="matrix(0.05,0,0,0.05,49.900000000000006,0)" xlink:href="#aA"/><use transform="matrix(0.05,0,0,0.05,58.900000000000006,0)" xlink:href="#am"/><use transform="matrix(0.05,0,0,0.05,68.9,0)" xlink:href="#an"/><use transform="matrix(0.05,0,0,0.05,78.9,0)" xlink:href="#ao"/></g><path fill="#494949" d="M30-248c87 1 191-15 191 75 0 78-77 80-158 76V0H30v-248zm33 125c57 0 124 11 124-50 0-59-68-47-124-48v98" id="aB"/><path fill="#494949" d="M59-47c-2 24 18 29 38 22v24C64 9 27 4 27-40v-127H5v-23h24l9-43h21v43h35v23H59v120" id="aC"/><path fill="#494949" d="M24 0v-261h32V0H24" id="aD"/><g id="h"><use transform="matrix(0.05,0,0,0.05,0,0)" xlink:href="#aB"/><use transform="matrix(0.05,0,0,0.05,12,0)" xlink:href="#aj"/><use transform="matrix(0.05,0,0,0.05,17.95,0)" xlink:href="#am"/><use transform="matrix(0.05,0,0,0.05,27.950000000000003,0)" xlink:href="#aC"/><use transform="matrix(0.05,0,0,0.05,32.95,0)" xlink:href="#ai"/><use transform="matrix(0.05,0,0,0.05,42.95,0)" xlink:href="#aD"/><use transform="matrix(0.05,0,0,0.05,46.900000000000006,0)" xlink:href="#ai"/><use transform="matrix(0.05,0,0,0.05,56.900000000000006,0)" xlink:href="#az"/><use transform="matrix(0.05,0,0,0.05,60.85,0)" xlink:href="#aj"/><use transform="matrix(0.05,0,0,0.05,66.80000000000001,0)" xlink:href="#am"/></g><path fill="#494949" d="M232-93c-1 65-40 97-104 97C67 4 28-28 28-90v-158h33c8 89-33 224 67 224 102 0 64-133 71-224h33v155" id="aE"/><g id="i"><use transform="matrix(0.05,0,0,0.05,0,0)" xlink:href="#ap"/><use transform="matrix(0.05,0,0,0.05,12.950000000000001,0)" xlink:href="#as"/><use transform="matrix(0.05,0,0,0.05,22.950000000000003,0)" xlink:href="#aE"/><use transform="matrix(0.05,0,0,0.05,35.900000000000006,0)" xlink:href="#ay"/><use transform="matrix(0.05,0,0,0.05,45.900000000000006,0)" xlink:href="#az"/><use transform="matrix(0.05,0,0,0.05,49.85000000000001,0)" xlink:href="#an"/><use transform="matrix(0.05,0,0,0.05,59.85,0)" xlink:href="#am"/><use transform="matrix(0.05,0,0,0.05,69.85000000000001,0)" xlink:href="#an"/><use transform="matrix(0.05,0,0,0.05,79.85000000000001,0)" xlink:href="#ai"/><use transform="matrix(0.05,0,0,0.05,89.85000000000001,0)" xlink:href="#ax"/></g><path fill="#494949" d="M101-234c-31-9-42 10-38 44h38v23H63V0H32v-167H5v-23h27c-7-52 17-82 69-68v24" id="aF"/><g id="j"><use transform="matrix(0.05,0,0,0.05,0,0)" xlink:href="#ap"/><use transform="matrix(0.05,0,0,0.05,12.950000000000001,0)" xlink:href="#as"/><use transform="matrix(0.05,0,0,0.05,22.950000000000003,0)" xlink:href="#aF"/><use transform="matrix(0.05,0,0,0.05,27.950000000000003,0)" xlink:href="#aj"/><use transform="matrix(0.05,0,0,0.05,33.900000000000006,0)" xlink:href="#ai"/><use transform="matrix(0.05,0,0,0.05,43.900000000000006,0)" xlink:href="#ay"/><use transform="matrix(0.05,0,0,0.05,53.900000000000006,0)" xlink:href="#aC"/><use transform="matrix(0.05,0,0,0.05,58.900000000000006,0)" xlink:href="#ai"/><use transform="matrix(0.05,0,0,0.05,68.9,0)" xlink:href="#ax"/></g><g id="k"><use transform="matrix(0.05,0,0,0.05,0,0)" xlink:href="#aw"/><use transform="matrix(0.05,0,0,0.05,12.950000000000001,0)" xlink:href="#am"/><use transform="matrix(0.05,0,0,0.05,22.950000000000003,0)" xlink:href="#aC"/><use transform="matrix(0.05,0,0,0.05,27.950000000000003,0)" xlink:href="#ai"/><use transform="matrix(0.05,0,0,0.05,37.95,0)" xlink:href="#av"/><use transform="matrix(0.05,0,0,0.05,47.95,0)" xlink:href="#ao"/><use transform="matrix(0.05,0,0,0.05,57.95,0)" xlink:href="#aj"/><use transform="matrix(0.05,0,0,0.05,63.900000000000006,0)" xlink:href="#az"/><use transform="matrix(0.05,0,0,0.05,67.85000000000001,0)" xlink:href="#am"/></g><path fill="#494949" d="M24-231v-30h32v30H24zM-9 49c24 4 33-6 33-30v-209h32V24c2 40-23 58-65 49V49" id="aG"/><g id="l"><use transform="matrix(0.05,0,0,0.05,0,0)" xlink:href="#an"/><use transform="matrix(0.05,0,0,0.05,10,0)" xlink:href="#az"/><use transform="matrix(0.05,0,0,0.05,13.949999999999998,0)" xlink:href="#ax"/><use transform="matrix(0.05,0,0,0.05,22.95,0)" xlink:href="#aG"/><use transform="matrix(0.05,0,0,0.05,26.899999999999995,0)" xlink:href="#ao"/><use transform="matrix(0.05,0,0,0.05,36.9,0)" xlink:href="#az"/><use transform="matrix(0.05,0,0,0.05,40.85,0)" xlink:href="#ay"/><use transform="matrix(0.05,0,0,0.05,50.85,0)" xlink:href="#aC"/></g><g id="m"><use transform="matrix(0.05,0,0,0.05,0,0)" xlink:href="#aw"/><use transform="matrix(0.05,0,0,0.05,12.950000000000001,0)" xlink:href="#am"/><use transform="matrix(0.05,0,0,0.05,22.950000000000003,0)" xlink:href="#aC"/><use transform="matrix(0.05,0,0,0.05,27.950000000000003,0)" xlink:href="#ai"/><use transform="matrix(0.05,0,0,0.05,37.95,0)" xlink:href="#av"/><use transform="matrix(0.05,0,0,0.05,47.95,0)" xlink:href="#ao"/><use transform="matrix(0.05,0,0,0.05,57.95,0)" xlink:href="#aj"/><use transform="matrix(0.05,0,0,0.05,63.900000000000006,0)" xlink:href="#az"/><use transform="matrix(0.05,0,0,0.05,67.85000000000001,0)" xlink:href="#am"/><use transform="matrix(0.05,0,0,0.05,77.85000000000001,0)" xlink:href="#as"/><use transform="matrix(0.05,0,0,0.05,87.85000000000001,0)" xlink:href="#af"/><use transform="matrix(0.05,0,0,0.05,99.85000000000001,0)" xlink:href="#az"/><use transform="matrix(0.05,0,0,0.05,103.80000000000001,0)" xlink:href="#ak"/><use transform="matrix(0.05,0,0,0.05,118.75,0)" xlink:href="#ah"/><use transform="matrix(0.05,0,0,0.05,128.75,0)" xlink:href="#aD"/><use transform="matrix(0.05,0,0,0.05,132.7,0)" xlink:href="#ai"/><use transform="matrix(0.05,0,0,0.05,142.7,0)" xlink:href="#ax"/></g><g id="n"><use transform="matrix(0.05,0,0,0.05,0,0)" xlink:href="#af"/><use transform="matrix(0.05,0,0,0.05,12,0)" xlink:href="#ag"/><use transform="matrix(0.05,0,0,0.05,22,0)" xlink:href="#ah"/><use transform="matrix(0.05,0,0,0.05,32,0)" xlink:href="#ai"/><use transform="matrix(0.05,0,0,0.05,42,0)" xlink:href="#aj"/><use transform="matrix(0.05,0,0,0.05,47.95,0)" xlink:href="#as"/><use transform="matrix(0.05,0,0,0.05,57.95,0)" xlink:href="#aw"/><use transform="matrix(0.05,0,0,0.05,70.9,0)" xlink:href="#am"/><use transform="matrix(0.05,0,0,0.05,80.9,0)" xlink:href="#aC"/><use transform="matrix(0.05,0,0,0.05,85.9,0)" xlink:href="#ai"/><use transform="matrix(0.05,0,0,0.05,95.9,0)" xlink:href="#av"/><use transform="matrix(0.05,0,0,0.05,105.9,0)" xlink:href="#ao"/><use transform="matrix(0.05,0,0,0.05,115.9,0)" xlink:href="#aj"/><use transform="matrix(0.05,0,0,0.05,121.85000000000001,0)" xlink:href="#az"/><use transform="matrix(0.05,0,0,0.05,125.80000000000001,0)" xlink:href="#am"/></g><path fill="#494949" d="M18-100v-36l175-74v27L42-118l151 64v27" id="aH"/><use transform="matrix(0.05,0,0,0.05,0,0)" xlink:href="#aH" id="o"/><path fill="#494949" d="M115-194c53 0 69 39 70 98 0 66-23 100-70 100C84 3 66-7 56-30L54 0H23l1-261h32v101c10-23 28-34 59-34zm-8 174c40 0 45-34 45-75 0-40-5-75-45-74-42 0-51 32-51 76 0 43 10 73 51 73" id="aI"/><g id="p"><use transform="matrix(0.05,0,0,0.05,0,0)" xlink:href="#al"/><use transform="matrix(0.05,0,0,0.05,9,0)" xlink:href="#ao"/><use transform="matrix(0.05,0,0,0.05,19,0)" xlink:href="#ay"/><use transform="matrix(0.05,0,0,0.05,29,0)" xlink:href="#aC"/><use transform="matrix(0.05,0,0,0.05,34,0)" xlink:href="#ai"/><use transform="matrix(0.05,0,0,0.05,44,0)" xlink:href="#ak"/><use transform="matrix(0.05,0,0,0.05,58.95,0)" xlink:href="#as"/><use transform="matrix(0.05,0,0,0.05,68.95,0)" xlink:href="#ax"/><use transform="matrix(0.05,0,0,0.05,77.95,0)" xlink:href="#ag"/><use transform="matrix(0.05,0,0,0.05,87.95,0)" xlink:href="#aI"/><use transform="matrix(0.05,0,0,0.05,97.95,0)" xlink:href="#as"/><use transform="matrix(0.05,0,0,0.05,107.95,0)" xlink:href="#al"/><use transform="matrix(0.05,0,0,0.05,116.95,0)" xlink:href="#am"/><use transform="matrix(0.05,0,0,0.05,126.95,0)" xlink:href="#aC"/><use transform="matrix(0.05,0,0,0.05,131.95,0)" xlink:href="#ai"/><use transform="matrix(0.05,0,0,0.05,141.95,0)" xlink:href="#av"/><use transform="matrix(0.05,0,0,0.05,151.95,0)" xlink:href="#ao"/><use transform="matrix(0.05,0,0,0.05,161.95,0)" xlink:href="#aj"/><use transform="matrix(0.05,0,0,0.05,167.89999999999998,0)" xlink:href="#az"/><use transform="matrix(0.05,0,0,0.05,171.84999999999997,0)" xlink:href="#am"/></g><g id="q"><use transform="matrix(0.05,0,0,0.05,0,0)" xlink:href="#aB"/><use transform="matrix(0.05,0,0,0.05,12,0)" xlink:href="#aj"/><use transform="matrix(0.05,0,0,0.05,17.95,0)" xlink:href="#ao"/><use transform="matrix(0.05,0,0,0.05,27.950000000000003,0)" xlink:href="#an"/><use transform="matrix(0.05,0,0,0.05,37.95,0)" xlink:href="#ag"/><use transform="matrix(0.05,0,0,0.05,47.95,0)" xlink:href="#aC"/><use transform="matrix(0.05,0,0,0.05,52.95,0)" xlink:href="#ao"/></g><g id="r"><use transform="matrix(0.05,0,0,0.05,0,0)" xlink:href="#ap"/><use transform="matrix(0.05,0,0,0.05,12.950000000000001,0)" xlink:href="#ao"/><use transform="matrix(0.05,0,0,0.05,22.950000000000003,0)" xlink:href="#aj"/><use transform="matrix(0.05,0,0,0.05,28.900000000000002,0)" xlink:href="#ak"/><use transform="matrix(0.05,0,0,0.05,43.85,0)" xlink:href="#am"/><use transform="matrix(0.05,0,0,0.05,53.85,0)" xlink:href="#aD"/></g><path fill="#494949" d="M143 4C61 4 22-44 18-125c-5-107 100-154 193-111 17 8 29 25 37 43l-32 9c-13-25-37-40-76-40-61 0-88 39-88 99 0 61 29 100 91 101 35 0 62-11 79-27v-45h-74v-28h105v86C228-13 192 4 143 4" id="aJ"/><g id="s"><use transform="matrix(0.05,0,0,0.05,0,0)" xlink:href="#aJ"/><use transform="matrix(0.05,0,0,0.05,14,0)" xlink:href="#aj"/><use transform="matrix(0.05,0,0,0.05,19.95,0)" xlink:href="#am"/><use transform="matrix(0.05,0,0,0.05,29.950000000000003,0)" xlink:href="#ay"/><use transform="matrix(0.05,0,0,0.05,39.95,0)" xlink:href="#ai"/><use transform="matrix(0.05,0,0,0.05,49.95,0)" xlink:href="#aD"/></g><g id="t"><use transform="matrix(0.05,0,0,0.05,0,0)" xlink:href="#at"/><use transform="matrix(0.05,0,0,0.05,14.950000000000001,0)" xlink:href="#am"/><use transform="matrix(0.05,0,0,0.05,24.950000000000003,0)" xlink:href="#aj"/><use transform="matrix(0.05,0,0,0.05,30.900000000000002,0)" xlink:href="#al"/><use transform="matrix(0.05,0,0,0.05,39.900000000000006,0)" xlink:href="#am"/></g><g id="u"><use transform="matrix(0.05,0,0,0.05,0,0)" xlink:href="#ar"/><use transform="matrix(0.05,0,0,0.05,10.950000000000001,0)" xlink:href="#ao"/><use transform="matrix(0.05,0,0,0.05,20.950000000000003,0)" xlink:href="#aj"/><use transform="matrix(0.05,0,0,0.05,26.900000000000002,0)" xlink:href="#ay"/><use transform="matrix(0.05,0,0,0.05,36.900000000000006,0)" xlink:href="#ai"/><use transform="matrix(0.05,0,0,0.05,46.900000000000006,0)" xlink:href="#al"/><use transform="matrix(0.05,0,0,0.05,55.900000000000006,0)" xlink:href="#ai"/><use transform="matrix(0.05,0,0,0.05,65.9,0)" xlink:href="#an"/><use transform="matrix(0.05,0,0,0.05,75.9,0)" xlink:href="#ao"/><use transform="matrix(0.05,0,0,0.05,85.9,0)" xlink:href="#aj"/></g><path fill="#494949" d="M108 0H70L1-190h34L89-25l56-165h34" id="aK"/><g id="v"><use transform="matrix(0.05,0,0,0.05,0,0)" xlink:href="#ao"/><use transform="matrix(0.05,0,0,0.05,10,0)" xlink:href="#aK"/><use transform="matrix(0.05,0,0,0.05,19,0)" xlink:href="#ai"/><use transform="matrix(0.05,0,0,0.05,29,0)" xlink:href="#aj"/><use transform="matrix(0.05,0,0,0.05,34.95,0)" xlink:href="#aD"/><use transform="matrix(0.05,0,0,0.05,38.900000000000006,0)" xlink:href="#am"/><use transform="matrix(0.05,0,0,0.05,48.900000000000006,0)" xlink:href="#ah"/><use transform="matrix(0.05,0,0,0.05,58.900000000000006,0)" xlink:href="#az"/><use transform="matrix(0.05,0,0,0.05,62.85,0)" xlink:href="#ay"/><use transform="matrix(0.05,0,0,0.05,72.85000000000001,0)" xlink:href="#av"/></g><g id="w"><use transform="matrix(0.05,0,0,0.05,0,0)" xlink:href="#af"/><use transform="matrix(0.05,0,0,0.05,12,0)" xlink:href="#ai"/><use transform="matrix(0.05,0,0,0.05,22,0)" xlink:href="#al"/><use transform="matrix(0.05,0,0,0.05,31,0)" xlink:href="#ag"/><use transform="matrix(0.05,0,0,0.05,41,0)" xlink:href="#ay"/><use transform="matrix(0.05,0,0,0.05,51,0)" xlink:href="#an"/><use transform="matrix(0.05,0,0,0.05,61,0)" xlink:href="#am"/><use transform="matrix(0.05,0,0,0.05,71,0)" xlink:href="#aj"/><use transform="matrix(0.05,0,0,0.05,76.95,0)" xlink:href="#az"/><use transform="matrix(0.05,0,0,0.05,80.9,0)" xlink:href="#ao"/></g><g id="x"><use transform="matrix(0.05,0,0,0.05,0,0)" xlink:href="#aB"/><use transform="matrix(0.05,0,0,0.05,12,0)" xlink:href="#aj"/><use transform="matrix(0.05,0,0,0.05,17.95,0)" xlink:href="#az"/><use transform="matrix(0.05,0,0,0.05,21.9,0)" xlink:href="#ak"/><use transform="matrix(0.05,0,0,0.05,36.85,0)" xlink:href="#am"/><use transform="matrix(0.05,0,0,0.05,46.85,0)" xlink:href="#aj"/><use transform="matrix(0.05,0,0,0.05,52.800000000000004,0)" xlink:href="#az"/><use transform="matrix(0.05,0,0,0.05,56.75,0)" xlink:href="#ao"/></g><g id="y"><use transform="matrix(0.05,0,0,0.05,0,0)" xlink:href="#ap"/><use transform="matrix(0.05,0,0,0.05,12.950000000000001,0)" xlink:href="#aq"/><use transform="matrix(0.05,0,0,0.05,17.950000000000003,0)" xlink:href="#ar"/><use transform="matrix(0.05,0,0,0.05,28.900000000000006,0)" xlink:href="#as"/><use transform="matrix(0.05,0,0,0.05,38.900000000000006,0)" xlink:href="#ar"/><use transform="matrix(0.05,0,0,0.05,49.85000000000001,0)" xlink:href="#ao"/><use transform="matrix(0.05,0,0,0.05,59.85,0)" xlink:href="#aj"/><use transform="matrix(0.05,0,0,0.05,65.80000000000001,0)" xlink:href="#ay"/><use transform="matrix(0.05,0,0,0.05,75.80000000000001,0)" xlink:href="#ai"/><use transform="matrix(0.05,0,0,0.05,85.80000000000001,0)" xlink:href="#al"/><use transform="matrix(0.05,0,0,0.05,94.80000000000001,0)" xlink:href="#ai"/><use transform="matrix(0.05,0,0,0.05,104.80000000000001,0)" xlink:href="#an"/><use transform="matrix(0.05,0,0,0.05,114.80000000000001,0)" xlink:href="#ao"/><use transform="matrix(0.05,0,0,0.05,124.80000000000001,0)" xlink:href="#aj"/></g><path fill="#494949" d="M30 0v-248h187v28H63v79h144v27H63v87h162V0H30" id="aL"/><g id="z"><use transform="matrix(0.05,0,0,0.05,0,0)" xlink:href="#aL"/><use transform="matrix(0.05,0,0,0.05,12,0)" xlink:href="#ak"/><use transform="matrix(0.05,0,0,0.05,26.950000000000003,0)" xlink:href="#ah"/><use transform="matrix(0.05,0,0,0.05,36.95,0)" xlink:href="#aj"/><use transform="matrix(0.05,0,0,0.05,42.900000000000006,0)" xlink:href="#ai"/><use transform="matrix(0.05,0,0,0.05,52.900000000000006,0)" xlink:href="#av"/><use transform="matrix(0.05,0,0,0.05,62.900000000000006,0)" xlink:href="#am"/><use transform="matrix(0.05,0,0,0.05,72.9,0)" xlink:href="#an"/><use transform="matrix(0.05,0,0,0.05,82.9,0)" xlink:href="#ao"/></g><g id="A"><use transform="matrix(0.05,0,0,0.05,0,0)" xlink:href="#ap"/><use transform="matrix(0.05,0,0,0.05,12.950000000000001,0)" xlink:href="#ao"/><use transform="matrix(0.05,0,0,0.05,22.950000000000003,0)" xlink:href="#aC"/><use transform="matrix(0.05,0,0,0.05,27.950000000000003,0)" xlink:href="#ag"/><use transform="matrix(0.05,0,0,0.05,37.95,0)" xlink:href="#aj"/><use transform="matrix(0.05,0,0,0.05,43.900000000000006,0)" xlink:href="#ay"/><use transform="matrix(0.05,0,0,0.05,53.900000000000006,0)" xlink:href="#ao"/></g><path fill="#494949" d="M30-248c118-7 216 8 213 122C240-48 200 0 122 0H30v-248zM63-27c89 8 146-16 146-99s-60-101-146-95v194" id="aM"/><g id="B"><use transform="matrix(0.05,0,0,0.05,0,0)" xlink:href="#aM"/><use transform="matrix(0.05,0,0,0.05,12.950000000000001,0)" xlink:href="#az"/><use transform="matrix(0.05,0,0,0.05,16.900000000000002,0)" xlink:href="#ag"/><use transform="matrix(0.05,0,0,0.05,26.900000000000002,0)" xlink:href="#ay"/><use transform="matrix(0.05,0,0,0.05,36.900000000000006,0)" xlink:href="#ao"/></g><g id="C"><use transform="matrix(0.05,0,0,0.05,0,0)" xlink:href="#ap"/><use transform="matrix(0.05,0,0,0.05,12.950000000000001,0)" xlink:href="#aq"/><use transform="matrix(0.05,0,0,0.05,17.950000000000003,0)" xlink:href="#ar"/><use transform="matrix(0.05,0,0,0.05,28.900000000000006,0)" xlink:href="#as"/><use transform="matrix(0.05,0,0,0.05,38.900000000000006,0)" xlink:href="#aL"/><use transform="matrix(0.05,0,0,0.05,50.900000000000006,0)" xlink:href="#ak"/><use transform="matrix(0.05,0,0,0.05,65.85000000000001,0)" xlink:href="#ah"/><use transform="matrix(0.05,0,0,0.05,75.85000000000001,0)" xlink:href="#aj"/><use transform="matrix(0.05,0,0,0.05,81.80000000000001,0)" xlink:href="#ai"/><use transform="matrix(0.05,0,0,0.05,91.80000000000001,0)" xlink:href="#av"/><use transform="matrix(0.05,0,0,0.05,101.80000000000001,0)" xlink:href="#am"/><use transform="matrix(0.05,0,0,0.05,111.80000000000001,0)" xlink:href="#an"/><use transform="matrix(0.05,0,0,0.05,121.80000000000001,0)" xlink:href="#ao"/></g><path fill="#494949" d="M96-169c-40 0-48 33-48 73s9 75 48 75c24 0 41-14 43-38l32 2c-6 37-31 61-74 61-59 0-76-41-82-99-10-93 101-131 147-64 4 7 5 14 7 22l-32 3c-4-21-16-35-41-35zm3 187c19-1 33 8 33 26 0 31-30 33-64 32V58c18 2 39 4 41-13 1-15-18-13-34-13L87 0h19" id="aN"/><path fill="#494949" d="M141-36C126-15 110 5 73 4 37 3 15-17 15-53c-1-64 63-63 125-63 3-35-9-54-41-54-24 1-41 7-42 31l-33-3c5-37 33-52 76-52 45 0 72 20 72 64v82c-1 20 7 32 28 27v20c-31 9-61-2-59-35zM48-53c0 20 12 33 32 33 41-3 63-29 60-74-43 2-92-5-92 41zm117-205c-3 23-9 48-36 47-26-1-65-44-74 0H39c4-23 8-48 36-47s64 44 74 0h16" id="aO"/><g id="D"><use transform="matrix(0.05,0,0,0.05,0,0)" xlink:href="#aw"/><use transform="matrix(0.05,0,0,0.05,12.950000000000001,0)" xlink:href="#ao"/><use transform="matrix(0.05,0,0,0.05,22.950000000000003,0)" xlink:href="#ak"/><use transform="matrix(0.05,0,0,0.05,37.900000000000006,0)" xlink:href="#ah"/><use transform="matrix(0.05,0,0,0.05,47.900000000000006,0)" xlink:href="#ai"/><use transform="matrix(0.05,0,0,0.05,57.900000000000006,0)" xlink:href="#ay"/><use transform="matrix(0.05,0,0,0.05,67.9,0)" xlink:href="#ax"/><use transform="matrix(0.05,0,0,0.05,76.9,0)" xlink:href="#am"/><use transform="matrix(0.05,0,0,0.05,86.9,0)" xlink:href="#aN"/><use transform="matrix(0.05,0,0,0.05,95.9,0)" xlink:href="#aO"/><use transform="matrix(0.05,0,0,0.05,105.9,0)" xlink:href="#ao"/></g><g id="E"><use transform="matrix(0.05,0,0,0.05,0,0)" xlink:href="#ao"/><use transform="matrix(0.05,0,0,0.05,10,0)" xlink:href="#aK"/><use transform="matrix(0.05,0,0,0.05,19,0)" xlink:href="#ai"/><use transform="matrix(0.05,0,0,0.05,29,0)" xlink:href="#aj"/><use transform="matrix(0.05,0,0,0.05,34.95,0)" xlink:href="#aD"/><use transform="matrix(0.05,0,0,0.05,38.900000000000006,0)" xlink:href="#am"/><use transform="matrix(0.05,0,0,0.05,48.900000000000006,0)" xlink:href="#ah"/><use transform="matrix(0.05,0,0,0.05,58.900000000000006,0)" xlink:href="#ax"/><use transform="matrix(0.05,0,0,0.05,67.9,0)" xlink:href="#ai"/></g><g id="F"><use transform="matrix(0.05,0,0,0.05,0,0)" xlink:href="#aL"/><use transform="matrix(0.05,0,0,0.05,12,0)" xlink:href="#ax"/><use transform="matrix(0.05,0,0,0.05,21,0)" xlink:href="#ah"/><use transform="matrix(0.05,0,0,0.05,31,0)" xlink:href="#ai"/><use transform="matrix(0.05,0,0,0.05,41,0)" xlink:href="#al"/><use transform="matrix(0.05,0,0,0.05,50,0)" xlink:href="#az"/><use transform="matrix(0.05,0,0,0.05,53.95,0)" xlink:href="#am"/><use transform="matrix(0.05,0,0,0.05,63.95,0)" xlink:href="#aD"/><use transform="matrix(0.05,0,0,0.05,67.9,0)" xlink:href="#az"/><use transform="matrix(0.05,0,0,0.05,71.85000000000001,0)" xlink:href="#ax"/><use transform="matrix(0.05,0,0,0.05,80.85000000000001,0)" xlink:href="#aC"/><use transform="matrix(0.05,0,0,0.05,85.85000000000001,0)" xlink:href="#am"/></g><g id="G"><use transform="matrix(0.05,0,0,0.05,0,0)" xlink:href="#aJ"/><use transform="matrix(0.05,0,0,0.05,14,0)" xlink:href="#ai"/><use transform="matrix(0.05,0,0,0.05,24,0)" xlink:href="#aj"/><use transform="matrix(0.05,0,0,0.05,29.950000000000003,0)" xlink:href="#am"/><use transform="matrix(0.05,0,0,0.05,39.95,0)" xlink:href="#aD"/></g><g id="H"><use transform="matrix(0.05,0,0,0.05,0,0)" xlink:href="#aL"/><use transform="matrix(0.05,0,0,0.05,12,0)" xlink:href="#ax"/><use transform="matrix(0.05,0,0,0.05,21,0)" xlink:href="#ah"/><use transform="matrix(0.05,0,0,0.05,31,0)" xlink:href="#ai"/><use transform="matrix(0.05,0,0,0.05,41,0)" xlink:href="#al"/><use transform="matrix(0.05,0,0,0.05,50,0)" xlink:href="#az"/><use transform="matrix(0.05,0,0,0.05,53.95,0)" xlink:href="#am"/><use transform="matrix(0.05,0,0,0.05,63.95,0)" xlink:href="#aD"/><use transform="matrix(0.05,0,0,0.05,67.9,0)" xlink:href="#az"/><use transform="matrix(0.05,0,0,0.05,71.85000000000001,0)" xlink:href="#an"/><use transform="matrix(0.05,0,0,0.05,81.85000000000001,0)" xlink:href="#am"/><use transform="matrix(0.05,0,0,0.05,91.85000000000001,0)" xlink:href="#an"/><use transform="matrix(0.05,0,0,0.05,101.85000000000001,0)" xlink:href="#ai"/></g><path fill="#494949" d="M100-194c62-1 85 37 85 99 1 63-27 99-86 99S16-35 15-95c0-66 28-99 85-99zM99-20c44 1 53-31 53-75 0-43-8-75-51-75s-53 32-53 75 10 74 51 75zm66-238c-3 23-9 48-36 47-26-1-65-44-74 0H39c4-23 8-48 36-47s64 44 74 0h16" id="aP"/><g id="I"><use transform="matrix(0.05,0,0,0.05,0,0)" xlink:href="#aj"/><use transform="matrix(0.05,0,0,0.05,5.95,0)" xlink:href="#ai"/><use transform="matrix(0.05,0,0,0.05,15.949999999999998,0)" xlink:href="#ah"/><use transform="matrix(0.05,0,0,0.05,25.950000000000003,0)" xlink:href="#aP"/><use transform="matrix(0.05,0,0,0.05,35.95,0)" xlink:href="#ai"/></g><path fill="#494949" d="M143 0L79-87 56-68V0H24v-261h32v163l83-92h37l-77 82L181 0h-38" id="aQ"/><g id="J"><use transform="matrix(0.05,0,0,0.05,0,0)" xlink:href="#aI"/><use transform="matrix(0.05,0,0,0.05,10,0)" xlink:href="#am"/><use transform="matrix(0.05,0,0,0.05,20,0)" xlink:href="#al"/><use transform="matrix(0.05,0,0,0.05,29,0)" xlink:href="#aQ"/><use transform="matrix(0.05,0,0,0.05,38,0)" xlink:href="#ag"/><use transform="matrix(0.05,0,0,0.05,48,0)" xlink:href="#ah"/></g><g id="K"><use transform="matrix(0.05,0,0,0.05,0,0)" xlink:href="#ah"/><use transform="matrix(0.05,0,0,0.05,10,0)" xlink:href="#ai"/><use transform="matrix(0.05,0,0,0.05,20,0)" xlink:href="#aj"/><use transform="matrix(0.05,0,0,0.05,25.950000000000003,0)" xlink:href="#aC"/><use transform="matrix(0.05,0,0,0.05,30.950000000000003,0)" xlink:href="#ai"/><use transform="matrix(0.05,0,0,0.05,40.95,0)" xlink:href="#ay"/><use transform="matrix(0.05,0,0,0.05,50.95,0)" xlink:href="#al"/><use transform="matrix(0.05,0,0,0.05,59.95,0)" xlink:href="#ai"/></g><path fill="#494949" d="M18-27v-27l151-64-151-65v-27l175 74v36" id="aR"/><use transform="matrix(0.05,0,0,0.05,0,0)" xlink:href="#aR" id="L"/><g id="M"><use transform="matrix(0.05,0,0,0.05,0,0)" xlink:href="#aC"/><use transform="matrix(0.05,0,0,0.05,5,0)" xlink:href="#ai"/><use transform="matrix(0.05,0,0,0.05,15,0)" xlink:href="#ak"/></g><g id="N"><use transform="matrix(0.05,0,0,0.05,0,0)" xlink:href="#aM"/><use transform="matrix(0.05,0,0,0.05,12.950000000000001,0)" xlink:href="#am"/><use transform="matrix(0.05,0,0,0.05,22.950000000000003,0)" xlink:href="#aC"/><use transform="matrix(0.05,0,0,0.05,27.950000000000003,0)" xlink:href="#am"/></g><path fill="#494949" d="M106-169C34-169 62-67 57 0H25v-261h32l-1 103c12-21 28-36 61-36 89 0 53 116 60 194h-32v-121c2-32-8-49-39-48" id="aS"/><g id="O"><use transform="matrix(0.05,0,0,0.05,0,0)" xlink:href="#aC"/><use transform="matrix(0.05,0,0,0.05,5,0)" xlink:href="#aj"/><use transform="matrix(0.05,0,0,0.05,10.95,0)" xlink:href="#am"/><use transform="matrix(0.05,0,0,0.05,20.95,0)" xlink:href="#aI"/><use transform="matrix(0.05,0,0,0.05,30.950000000000003,0)" xlink:href="#am"/><use transform="matrix(0.05,0,0,0.05,40.95,0)" xlink:href="#aD"/><use transform="matrix(0.05,0,0,0.05,44.900000000000006,0)" xlink:href="#aS"/><use transform="matrix(0.05,0,0,0.05,54.900000000000006,0)" xlink:href="#am"/><use transform="matrix(0.05,0,0,0.05,64.9,0)" xlink:href="#as"/><use transform="matrix(0.05,0,0,0.05,74.9,0)" xlink:href="#ai"/><use transform="matrix(0.05,0,0,0.05,84.9,0)" xlink:href="#ak"/></g><g id="P"><use transform="matrix(0.05,0,0,0.05,0,0)" xlink:href="#ap"/><use transform="matrix(0.05,0,0,0.05,12.950000000000001,0)" xlink:href="#ag"/><use transform="matrix(0.05,0,0,0.05,22.950000000000003,0)" xlink:href="#ak"/><use transform="matrix(0.05,0,0,0.05,37.900000000000006,0)" xlink:href="#ai"/><use transform="matrix(0.05,0,0,0.05,47.900000000000006,0)" xlink:href="#aj"/><use transform="matrix(0.05,0,0,0.05,53.85,0)" xlink:href="#ao"/><use transform="matrix(0.05,0,0,0.05,63.85,0)" xlink:href="#as"/><use transform="matrix(0.05,0,0,0.05,73.85000000000001,0)" xlink:href="#aw"/><use transform="matrix(0.05,0,0,0.05,86.80000000000001,0)" xlink:href="#ao"/><use transform="matrix(0.05,0,0,0.05,96.80000000000001,0)" xlink:href="#aj"/><use transform="matrix(0.05,0,0,0.05,102.75,0)" xlink:href="#aj"/><use transform="matrix(0.05,0,0,0.05,108.7,0)" xlink:href="#ai"/><use transform="matrix(0.05,0,0,0.05,118.7,0)" xlink:href="#an"/><use transform="matrix(0.05,0,0,0.05,128.70000000000002,0)" xlink:href="#ao"/><use transform="matrix(0.05,0,0,0.05,138.70000000000002,0)" xlink:href="#aj"/></g><path fill="#494949" d="M16-82v-28h88v28H16" id="aT"/><g id="Q"><use transform="matrix(0.05,0,0,0.05,0,0)" xlink:href="#aT"/><use transform="matrix(0.05,0,0,0.05,5.95,0)" xlink:href="#aT"/><use transform="matrix(0.05,0,0,0.05,11.9,0)" xlink:href="#aT"/><use transform="matrix(0.05,0,0,0.05,17.85,0)" xlink:href="#aT"/><use transform="matrix(0.05,0,0,0.05,23.8,0)" xlink:href="#aT"/><use transform="matrix(0.05,0,0,0.05,29.75,0)" xlink:href="#aT"/><use transform="matrix(0.05,0,0,0.05,35.7,0)" xlink:href="#aT"/><use transform="matrix(0.05,0,0,0.05,41.650000000000006,0)" xlink:href="#aT"/><use transform="matrix(0.05,0,0,0.05,47.60000000000001,0)" xlink:href="#aT"/><use transform="matrix(0.05,0,0,0.05,53.55000000000001,0)" xlink:href="#aT"/><use transform="matrix(0.05,0,0,0.05,59.500000000000014,0)" xlink:href="#aT"/><use transform="matrix(0.05,0,0,0.05,65.45000000000002,0)" xlink:href="#aT"/><use transform="matrix(0.05,0,0,0.05,71.40000000000002,0)" xlink:href="#aT"/><use transform="matrix(0.05,0,0,0.05,77.35000000000002,0)" xlink:href="#aT"/><use transform="matrix(0.05,0,0,0.05,83.30000000000003,0)" xlink:href="#aT"/><use transform="matrix(0.05,0,0,0.05,89.25000000000003,0)" xlink:href="#aT"/><use transform="matrix(0.05,0,0,0.05,95.20000000000003,0)" xlink:href="#aT"/><use transform="matrix(0.05,0,0,0.05,101.15000000000003,0)" xlink:href="#aT"/><use transform="matrix(0.05,0,0,0.05,107.10000000000002,0)" xlink:href="#aT"/><use transform="matrix(0.05,0,0,0.05,113.05000000000003,0)" xlink:href="#aT"/><use transform="matrix(0.05,0,0,0.05,119.00000000000006,0)" xlink:href="#aT"/><use transform="matrix(0.05,0,0,0.05,124.95000000000005,0)" xlink:href="#aT"/><use transform="matrix(0.05,0,0,0.05,130.90000000000003,0)" xlink:href="#aT"/><use transform="matrix(0.05,0,0,0.05,136.85000000000002,0)" xlink:href="#aT"/><use transform="matrix(0.05,0,0,0.05,142.8,0)" xlink:href="#aT"/><use transform="matrix(0.05,0,0,0.05,148.75,0)" xlink:href="#aT"/></g><g id="R"><use transform="matrix(0.05,0,0,0.05,0,0)" xlink:href="#au"/><use transform="matrix(0.05,0,0,0.05,10,0)" xlink:href="#ao"/><use transform="matrix(0.05,0,0,0.05,20,0)" xlink:href="#al"/><use transform="matrix(0.05,0,0,0.05,29,0)" xlink:href="#am"/><use transform="matrix(0.05,0,0,0.05,39,0)" xlink:href="#aD"/><use transform="matrix(0.05,0,0,0.05,42.95,0)" xlink:href="#az"/><use transform="matrix(0.05,0,0,0.05,46.900000000000006,0)" xlink:href="#aA"/><use transform="matrix(0.05,0,0,0.05,55.900000000000006,0)" xlink:href="#am"/><use transform="matrix(0.05,0,0,0.05,65.9,0)" xlink:href="#al"/><use transform="matrix(0.05,0,0,0.05,74.9,0)" xlink:href="#am"/><use transform="matrix(0.05,0,0,0.05,84.9,0)" xlink:href="#ao"/></g><path fill="#494949" d="M205 0l-28-72H64L36 0H1l101-248h38L239 0h-34zm-38-99l-47-123c-12 45-31 82-46 123h93" id="aU"/><g id="S"><use transform="matrix(0.05,0,0,0.05,0,0)" xlink:href="#aL"/><use transform="matrix(0.05,0,0,0.05,12,0)" xlink:href="#aU"/><use transform="matrix(0.05,0,0,0.05,24,0)" xlink:href="#ap"/></g><g id="T"><use transform="matrix(0.05,0,0,0.05,0,0)" xlink:href="#aM"/><use transform="matrix(0.05,0,0,0.05,12.950000000000001,0)" xlink:href="#ai"/><use transform="matrix(0.05,0,0,0.05,22.950000000000003,0)" xlink:href="#ax"/><use transform="matrix(0.05,0,0,0.05,31.950000000000003,0)" xlink:href="#az"/><use transform="matrix(0.05,0,0,0.05,35.900000000000006,0)" xlink:href="#av"/><use transform="matrix(0.05,0,0,0.05,45.900000000000006,0)" xlink:href="#ay"/><use transform="matrix(0.05,0,0,0.05,55.900000000000006,0)" xlink:href="#am"/><use transform="matrix(0.05,0,0,0.05,65.9,0)" xlink:href="#aN"/><use transform="matrix(0.05,0,0,0.05,74.9,0)" xlink:href="#aO"/><use transform="matrix(0.05,0,0,0.05,84.9,0)" xlink:href="#ao"/></g><g id="U"><use transform="matrix(0.05,0,0,0.05,0,0)" xlink:href="#aj"/><use transform="matrix(0.05,0,0,0.05,5.95,0)" xlink:href="#ai"/><use transform="matrix(0.05,0,0,0.05,15.949999999999998,0)" xlink:href="#ah"/><use transform="matrix(0.05,0,0,0.05,25.950000000000003,0)" xlink:href="#ao"/><use transform="matrix(0.05,0,0,0.05,35.95,0)" xlink:href="#ai"/></g><path fill="#494949" d="M233-177c-1 41-23 64-60 70L243 0h-38l-65-103H63V0H30v-248c88 3 205-21 203 71zM63-129c60-2 137 13 137-47 0-61-80-42-137-45v92" id="aV"/><g id="V"><use transform="matrix(0.05,0,0,0.05,0,0)" xlink:href="#aV"/><use transform="matrix(0.05,0,0,0.05,12.950000000000001,0)" xlink:href="#ai"/><use transform="matrix(0.05,0,0,0.05,22.950000000000003,0)" xlink:href="#ah"/><use transform="matrix(0.05,0,0,0.05,32.95,0)" xlink:href="#ao"/><use transform="matrix(0.05,0,0,0.05,42.95,0)" xlink:href="#ax"/><use transform="matrix(0.05,0,0,0.05,51.95,0)" xlink:href="#az"/><use transform="matrix(0.05,0,0,0.05,55.900000000000006,0)" xlink:href="#al"/><use transform="matrix(0.05,0,0,0.05,64.9,0)" xlink:href="#am"/><use transform="matrix(0.05,0,0,0.05,74.9,0)" xlink:href="#ao"/></g><use transform="matrix(0.05,0,0,0.05,0,0)" xlink:href="#aH" id="X"/><g id="Y"><use transform="matrix(0.05,0,0,0.05,0,0)" xlink:href="#ai"/><use transform="matrix(0.05,0,0,0.05,10,0)" xlink:href="#as"/><use transform="matrix(0.05,0,0,0.05,20,0)" xlink:href="#aj"/><use transform="matrix(0.05,0,0,0.05,25.950000000000003,0)" xlink:href="#ai"/><use transform="matrix(0.05,0,0,0.05,35.95,0)" xlink:href="#ah"/><use transform="matrix(0.05,0,0,0.05,45.95,0)" xlink:href="#ao"/><use transform="matrix(0.05,0,0,0.05,55.95,0)" xlink:href="#ax"/><use transform="matrix(0.05,0,0,0.05,64.95,0)" xlink:href="#aC"/><use transform="matrix(0.05,0,0,0.05,69.95,0)" xlink:href="#ao"/></g><g id="Z"><use transform="matrix(0.05,0,0,0.05,0,0)" xlink:href="#ah"/><use transform="matrix(0.05,0,0,0.05,10,0)" xlink:href="#aD"/><use transform="matrix(0.05,0,0,0.05,13.949999999999998,0)" xlink:href="#am"/><use transform="matrix(0.05,0,0,0.05,23.95,0)" xlink:href="#ay"/><use transform="matrix(0.05,0,0,0.05,33.95,0)" xlink:href="#ao"/><use transform="matrix(0.05,0,0,0.05,43.95,0)" xlink:href="#av"/><use transform="matrix(0.05,0,0,0.05,53.95,0)" xlink:href="#aj"/><use transform="matrix(0.05,0,0,0.05,59.900000000000006,0)" xlink:href="#am"/><use transform="matrix(0.05,0,0,0.05,69.9,0)" xlink:href="#ak"/><use transform="matrix(0.05,0,0,0.05,84.85000000000001,0)" xlink:href="#am"/></g><g id="aa"><use transform="matrix(0.05,0,0,0.05,0,0)" xlink:href="#am"/><use transform="matrix(0.05,0,0,0.05,10,0)" xlink:href="#aD"/><use transform="matrix(0.05,0,0,0.05,13.949999999999998,0)" xlink:href="#aC"/><use transform="matrix(0.05,0,0,0.05,18.95,0)" xlink:href="#ag"/><use transform="matrix(0.05,0,0,0.05,28.950000000000003,0)" xlink:href="#aj"/><use transform="matrix(0.05,0,0,0.05,34.9,0)" xlink:href="#am"/></g><g id="ab"><use transform="matrix(0.05,0,0,0.05,0,0)" xlink:href="#aT"/><use transform="matrix(0.05,0,0,0.05,5.95,0)" xlink:href="#aT"/><use transform="matrix(0.05,0,0,0.05,11.9,0)" xlink:href="#aT"/><use transform="matrix(0.05,0,0,0.05,17.85,0)" xlink:href="#aT"/><use transform="matrix(0.05,0,0,0.05,23.8,0)" xlink:href="#aT"/><use transform="matrix(0.05,0,0,0.05,29.75,0)" xlink:href="#aT"/><use transform="matrix(0.05,0,0,0.05,35.7,0)" xlink:href="#aT"/><use transform="matrix(0.05,0,0,0.05,41.650000000000006,0)" xlink:href="#aT"/><use transform="matrix(0.05,0,0,0.05,47.60000000000001,0)" xlink:href="#aT"/></g><g id="ac"><use transform="matrix(0.05,0,0,0.05,0,0)" xlink:href="#aD"/><use transform="matrix(0.05,0,0,0.05,3.95,0)" xlink:href="#am"/><use transform="matrix(0.05,0,0,0.05,13.949999999999998,0)" xlink:href="#an"/><use transform="matrix(0.05,0,0,0.05,23.95,0)" xlink:href="#ao"/></g><g id="ad"><use transform="matrix(0.05,0,0,0.05,0,0)" xlink:href="#aq"/><use transform="matrix(0.05,0,0,0.05,5,0)" xlink:href="#ay"/><use transform="matrix(0.05,0,0,0.05,15,0)" xlink:href="#ax"/><use transform="matrix(0.05,0,0,0.05,24,0)" xlink:href="#aC"/><use transform="matrix(0.05,0,0,0.05,29,0)" xlink:href="#am"/><use transform="matrix(0.05,0,0,0.05,39,0)" xlink:href="#ay"/><use transform="matrix(0.05,0,0,0.05,49,0)" xlink:href="#aC"/><use transform="matrix(0.05,0,0,0.05,54,0)" xlink:href="#ai"/></g><g id="ae"><use transform="matrix(0.05,0,0,0.05,0,0)" xlink:href="#aT"/><use transform="matrix(0.05,0,0,0.05,5.95,0)" xlink:href="#aT"/><use transform="matrix(0.05,0,0,0.05,11.9,0)" xlink:href="#aT"/><use transform="matrix(0.05,0,0,0.05,17.85,0)" xlink:href="#aT"/><use transform="matrix(0.05,0,0,0.05,23.8,0)" xlink:href="#aT"/><use transform="matrix(0.05,0,0,0.05,29.75,0)" xlink:href="#aT"/><use transform="matrix(0.05,0,0,0.05,35.7,0)" xlink:href="#aT"/><use transform="matrix(0.05,0,0,0.05,41.650000000000006,0)" xlink:href="#aT"/><use transform="matrix(0.05,0,0,0.05,47.60000000000001,0)" xlink:href="#aT"/><use transform="matrix(0.05,0,0,0.05,53.55000000000001,0)" xlink:href="#aT"/><use transform="matrix(0.05,0,0,0.05,59.500000000000014,0)" xlink:href="#aT"/><use transform="matrix(0.05,0,0,0.05,65.45000000000002,0)" xlink:href="#aT"/></g></defs></g></svg>